<svg width="94" height="19" viewBox="0 0 94 19" fill="none" xmlns="http://www.w3.org/2000/svg">
<path d="M0 0H2.18V6.24H2.3C2.60667 5.61333 3.01333 5.12667 3.52 4.78C4.02667 4.42 4.66 4.24 5.42 4.24C6.63333 4.24 7.6 4.69333 8.32 5.6C9.04 6.50667 9.4 7.85333 9.4 9.64C9.4 11.4267 9.04 12.7733 8.32 13.68C7.6 14.5867 6.63333 15.04 5.42 15.04C4.66 15.04 4.02667 14.8667 3.52 14.52C3.01333 14.16 2.60667 13.6667 2.3 13.04H2.18V14.8H0V0ZM4.52 13.26C5.34667 13.26 5.98 13.0067 6.42 12.5C6.87333 11.9933 7.1 11.32 7.1 10.48V8.8C7.1 7.96 6.87333 7.28667 6.42 6.78C5.98 6.27333 5.34667 6.02 4.52 6.02C4.2 6.02 3.9 6.06 3.62 6.14C3.34 6.22 3.09333 6.34 2.88 6.5C2.66667 6.66 2.49333 6.86 2.36 7.1C2.24 7.32667 2.18 7.6 2.18 7.92V11.36C2.18 11.68 2.24 11.96 2.36 12.2C2.49333 12.4267 2.66667 12.62 2.88 12.78C3.09333 12.94 3.34 13.06 3.62 13.14C3.9 13.22 4.2 13.26 4.52 13.26Z" fill="white"/>
<path d="M19.4322 4.48H21.6322L16.6322 16.8C16.3655 17.4667 16.0122 17.9667 15.5722 18.3C15.1455 18.6333 14.5255 18.8 13.7122 18.8H11.9722V17.04H14.4122L15.3522 14.66L11.1922 4.48H13.4722L15.1122 8.8L16.3922 12.34H16.5122L17.7922 8.8L19.4322 4.48Z" fill="white"/>
<path d="M35.9566 13.04H39.2566V6.24H35.7566V4.48H39.2566V2.62C39.2566 1.84667 39.4699 1.22 39.8966 0.74C40.3232 0.246667 40.9899 0 41.8966 0H45.3766V1.76H41.4366V4.48H45.3766V6.24H41.4366V13.04H44.9166V14.8H35.9566V13.04Z" fill="white"/>
<path d="M56.2287 14.8C55.6021 14.8 55.1287 14.64 54.8088 14.32C54.5021 14 54.3154 13.58 54.2487 13.06H54.1488C53.9487 13.6867 53.5821 14.1733 53.0488 14.52C52.5288 14.8667 51.8621 15.04 51.0488 15.04C49.9954 15.04 49.1554 14.7667 48.5288 14.22C47.9021 13.66 47.5887 12.8933 47.5887 11.92C47.5887 10.92 47.9554 10.16 48.6888 9.64C49.4354 9.10667 50.5754 8.84 52.1087 8.84H54.0887V8.04C54.0887 6.64 53.3488 5.94 51.8688 5.94C51.2021 5.94 50.6621 6.07333 50.2487 6.34C49.8354 6.59333 49.4888 6.93333 49.2088 7.36L47.9087 6.3C48.2021 5.74 48.6954 5.26 49.3887 4.86C50.0821 4.44667 50.9754 4.24 52.0687 4.24C53.3754 4.24 54.4021 4.55333 55.1488 5.18C55.8954 5.80667 56.2687 6.71333 56.2687 7.9V13.08H57.5687V14.8H56.2287ZM51.6688 13.44C52.3754 13.44 52.9554 13.28 53.4087 12.96C53.8621 12.64 54.0887 12.2267 54.0887 11.72V10.22H52.1488C50.5754 10.22 49.7887 10.6933 49.7887 11.64V12.04C49.7887 12.5067 49.9554 12.86 50.2887 13.1C50.6221 13.3267 51.0821 13.44 51.6688 13.44Z" fill="white"/>
<path d="M64.7609 15.04C63.9876 15.04 63.2943 14.9133 62.6809 14.66C62.0809 14.4067 61.5676 14.0467 61.1409 13.58C60.7276 13.1133 60.4076 12.5467 60.1809 11.88C59.9676 11.2133 59.8609 10.4667 59.8609 9.64C59.8609 8.81333 59.9676 8.06667 60.1809 7.4C60.4076 6.73333 60.7276 6.16667 61.1409 5.7C61.5676 5.23333 62.0809 4.87333 62.6809 4.62C63.2943 4.36667 63.9809 4.24 64.7409 4.24C65.8076 4.24 66.6609 4.46667 67.3009 4.92C67.9543 5.37333 68.4409 5.96 68.7609 6.68L67.0609 7.6C66.8743 7.12 66.5876 6.74 66.2009 6.46C65.8276 6.18 65.3409 6.04 64.7409 6.04C63.9143 6.04 63.2743 6.29333 62.8209 6.8C62.3676 7.29333 62.1409 7.95333 62.1409 8.78V10.5C62.1409 11.3133 62.3676 11.9733 62.8209 12.48C63.2743 12.9867 63.9276 13.24 64.7809 13.24C65.4209 13.24 65.9409 13.0933 66.3409 12.8C66.7543 12.5067 67.0809 12.1067 67.3209 11.6L68.9209 12.58C68.5876 13.3 68.0809 13.8933 67.4009 14.36C66.7209 14.8133 65.8409 15.04 64.7609 15.04Z" fill="white"/>
<path d="M78.5131 13.04H78.4131C78.3065 13.3067 78.1665 13.5667 77.9931 13.82C77.8331 14.06 77.6331 14.2733 77.3931 14.46C77.1531 14.6333 76.8731 14.7733 76.5531 14.88C76.2331 14.9867 75.8598 15.04 75.4331 15.04C74.3931 15.04 73.5531 14.7 72.9131 14.02C72.2731 13.34 71.9531 12.3733 71.9531 11.12V4.48H74.1331V10.8C74.1331 12.44 74.8465 13.26 76.2731 13.26C76.5531 13.26 76.8265 13.2267 77.0931 13.16C77.3598 13.08 77.5998 12.9667 77.8131 12.82C78.0265 12.6733 78.1931 12.4933 78.3131 12.28C78.4465 12.0533 78.5131 11.7867 78.5131 11.48V4.48H80.6931V14.8H78.5131V13.04Z" fill="white"/>
<path d="M83.9453 4.48H86.1253V6.24H86.2453C86.552 5.61333 86.9586 5.12667 87.4653 4.78C87.972 4.42 88.6053 4.24 89.3653 4.24C90.5786 4.24 91.5453 4.69333 92.2653 5.6C92.9853 6.50667 93.3453 7.85333 93.3453 9.64C93.3453 11.4267 92.9853 12.7733 92.2653 13.68C91.5453 14.5867 90.5786 15.04 89.3653 15.04C88.6053 15.04 87.972 14.8667 87.4653 14.52C86.9586 14.16 86.552 13.6667 86.2453 13.04H86.1253V18.8H83.9453V4.48ZM88.4653 13.26C89.292 13.26 89.9253 13.0067 90.3653 12.5C90.8186 11.9933 91.0453 11.32 91.0453 10.48V8.8C91.0453 7.96 90.8186 7.28667 90.3653 6.78C89.9253 6.27333 89.292 6.02 88.4653 6.02C88.1453 6.02 87.8453 6.06 87.5653 6.14C87.2853 6.22 87.0386 6.34 86.8253 6.5C86.612 6.66 86.4386 6.86 86.3053 7.1C86.1853 7.32667 86.1253 7.6 86.1253 7.92V11.36C86.1253 11.68 86.1853 11.96 86.3053 12.2C86.4386 12.4267 86.612 12.62 86.8253 12.78C87.0386 12.94 87.2853 13.06 87.5653 13.14C87.8453 13.22 88.1453 13.26 88.4653 13.26Z" fill="white"/>
</svg>
